<svg xmlns="http://www.w3.org/2000/svg" viewBox="0 0 32 32">
  <g fill="none" stroke="#000" stroke-linecap="round" stroke-linejoin="round" stroke-width="1.5">
    <path stroke-width="1.9999949999999997" d="M6.995 30.997h-4 0a2 2 0 01-2-2s0 0 0 0v-26h0a2 2 0 012-2h14.172a2 2 0 011.414.587l7.828 7.828h0a2 2 0 01.586 1.415v6.17"/>
    <path stroke-width="1.9999949999999997" d="M26.995 10.997h-8 0a2 2 0 01-2-2s0 0 0 0v-8M11 31V21M10.995 20.997H12a3 3 0 010 6h-1M18.995 30.997h0a4 4 0 004-4v-2h0a4 4 0 00-4-4zM26.995 30.997v-8h0a2 2 0 012-2h2M27 27h3"/>
  </g>
</svg>
